<svg xmlns="http://www.w3.org/2000/svg" xmlns:xlink="http://www.w3.org/1999/xlink" width="500" zoomAndPan="magnify" viewBox="0 0 375 277.499997" height="370" preserveAspectRatio="xMidYMid meet" version="1.0"><defs><clipPath id="73a3ce380b"><path d="M 15 7.488281 L 360 7.488281 L 360 233 L 15 233 Z M 15 7.488281 " clip-rule="nonzero"/></clipPath><clipPath id="71e27b4b33"><path d="M 0.335938 98 L 374.660156 98 L 374.660156 269.515625 L 0.335938 269.515625 Z M 0.335938 98 " clip-rule="nonzero"/></clipPath></defs><g clip-path="url(#73a3ce380b)"><path fill="#ffde59" d="M 187.5 7.648438 C 92.417969 7.648438 15.335938 84.730469 15.335938 179.8125 C 15.335938 198.371094 18.285156 216.230469 23.714844 232.976562 L 37.65625 219.035156 C 34.386719 206.507812 32.640625 193.367188 32.640625 179.8125 C 32.640625 94.285156 101.972656 24.953125 187.5 24.953125 C 273.027344 24.953125 342.359375 94.285156 342.359375 179.8125 C 342.359375 186.949219 341.863281 193.96875 340.929688 200.851562 L 354.527344 221.683594 C 357.875 208.277344 359.664062 194.257812 359.664062 179.8125 C 359.664062 84.730469 282.582031 7.648438 187.5 7.648438 " fill-opacity="1" fill-rule="nonzero"/></g><g clip-path="url(#71e27b4b33)"><path fill="#ffde59" d="M 146.105469 242.515625 L 154.933594 218.957031 L 240.976562 263.585938 L 173.148438 181.867188 L 263.640625 228.074219 L 246.21875 206.375 L 277.222656 190.570312 L 374.664062 269.351562 L 262.996094 98.246094 L 212.667969 160.042969 L 165.480469 130.160156 L 121.445312 183.800781 L 100.75 168.941406 L 0.335938 269.351562 L 75.070312 253.953125 L 91.613281 234.695312 L 162.652344 269.351562 L 146.105469 242.515625 " fill-opacity="1" fill-rule="nonzero"/></g></svg>